# xmcd
#
# Track frame offsets: 
#        150
#        16561
#        33936
#        45745
#        58113
#        68403
#        83459
#        100503
#        119466
#        131401
#        149537
#        164899
#        182844
#        200940
#        214908
#        233555
#        251731
#        271759
#        289047
#        302519
#        320645
#        338125
#
# Disc length: 4745 seconds
#
# Revision: 0
# Processed by: cddbd v1.5.2PL0 Copyright (c) Steve Scherf et al.
# Submitted via: ExactAudioCopy v0.95a5
#
DISCID=3b128716
DTITLE=Various Artist - 风潮音乐会
DYEAR=2001
DGENRE=Folk
TTITLE0=嘟嘟雾
TTITLE1=戏水
TTITLE2=遇见天空
TTITLE3=嬉戏
TTITLE4=蝶舞
TTITLE5=我的太阳
TTITLE6=晨曦
TTITLE7=天堂
TTITLE8=泼水歌
TTITLE9=轻罗小扇
TTITLE10=万里无云
TTITLE11=江上垂钓图
TTITLE12=天地灵气
TTITLE13=月光竹雨
TTITLE14=乡愁
TTITLE15=少女快乐咒
TTITLE16=Calling You
TTITLE17=Wings of Faith
TTITLE18=Spirit Calling
TTITLE19=The Legend of Desire
TTITLE20=Tikal
TTITLE21=茶雨
EXTD=
EXTT0=
EXTT1=
EXTT2=
EXTT3=
EXTT4=
EXTT5=
EXTT6=
EXTT7=
EXTT8=
EXTT9=
EXTT10=
EXTT11=
EXTT12=
EXTT13=
EXTT14=
EXTT15=
EXTT16=
EXTT17=
EXTT18=
EXTT19=
EXTT20=
EXTT21=
PLAYORDER=
